<svg width="24" height="24" viewBox="0 0 24 24" fill="none" xmlns="http://www.w3.org/2000/svg">
<rect width="24" height="24" fill="white"/>
<path d="M19.767 4C21.0002 4 21.9396 5.10518 21.7409 6.32226L19.7539 18.4923C19.596 19.4596 18.7602 20.17 17.7801 20.17H15.2056C13.8957 20.17 12.9394 18.9318 13.2705 17.6645L16.4496 5.49451C16.6796 4.61417 17.4748 4 18.3847 4H19.767ZM8.15099 4C9.38419 4 10.3236 5.10518 10.1249 6.32226L8.13792 18.4923C7.97998 19.4596 7.14423 20.17 6.16405 20.17H3.58956C2.27971 20.17 1.32344 18.9318 1.65449 17.6645L4.8336 5.49451C5.06356 4.61417 5.85878 4 6.76866 4H8.15099Z" fill="#FF5500"/>
</svg>
